<svg width="26" height="26" viewBox="0 0 26 26" fill="none" xmlns="http://www.w3.org/2000/svg">
<path d="M11.0354 0C10.8176 0 10.6086 0.0856024 10.4546 0.237976C10.3005 0.390349 10.2139 0.597012 10.2139 0.8125C10.2139 1.02799 10.3005 1.23465 10.4546 1.38702C10.6086 1.5394 10.8176 1.625 11.0354 1.625H11.8569V3.36375C8.9792 3.77513 6.3658 5.24919 4.54251 7.48935C2.71922 9.72951 1.82135 12.5695 2.02954 15.438C2.23774 18.3064 3.53655 20.9905 5.66465 22.9501C7.79276 24.9097 10.5922 25.9994 13.4998 26C15.7045 25.9999 17.8627 25.3731 19.7174 24.1941C21.572 23.0151 23.045 21.3337 23.9608 19.3502C24.8766 17.3666 25.1967 15.1645 24.8829 13.0061C24.5692 10.8477 23.6347 8.82399 22.191 7.176C22.1982 7.16962 22.2054 7.16312 22.2124 7.1565L22.794 6.58125L23.3739 7.1565C23.4497 7.2341 23.5403 7.296 23.6406 7.33858C23.7408 7.38117 23.8486 7.40358 23.9577 7.40452C24.0667 7.40545 24.1749 7.3849 24.2759 7.34404C24.3768 7.30319 24.4685 7.24286 24.5457 7.16657C24.6228 7.09028 24.6838 6.99957 24.7251 6.89971C24.7664 6.79986 24.7872 6.69287 24.7862 6.58499C24.7853 6.4771 24.7626 6.37049 24.7196 6.27136C24.6765 6.17223 24.6139 6.08258 24.5355 6.00763L22.2124 3.70825C22.1366 3.63065 22.0459 3.56875 21.9457 3.52617C21.8455 3.48359 21.7377 3.46117 21.6286 3.46023C21.5195 3.4593 21.4114 3.47985 21.3104 3.52071C21.2095 3.56156 21.1177 3.62189 21.0406 3.69818C20.9635 3.77447 20.9025 3.86518 20.8612 3.96504C20.8199 4.06489 20.7991 4.17188 20.8 4.27976C20.801 4.38765 20.8237 4.49426 20.8667 4.59339C20.9098 4.69252 20.9723 4.78217 21.0508 4.85713L21.6324 5.43237L21.0508 6.00763C21.0441 6.01405 21.0376 6.02055 21.0311 6.02713C19.3679 4.59838 17.3235 3.67422 15.1428 3.36538V1.625H15.9642C16.1821 1.625 16.3911 1.5394 16.5451 1.38702C16.6992 1.23465 16.7857 1.02799 16.7857 0.8125C16.7857 0.597012 16.6992 0.390349 16.5451 0.237976C16.3911 0.0856024 16.1821 0 15.9642 0L11.0354 0ZM14.3213 9.1V14.625C14.3213 14.8405 14.2348 15.0472 14.0807 15.1995C13.9266 15.3519 13.7177 15.4375 13.4998 15.4375H7.74953C7.53167 15.4375 7.32272 15.3519 7.16867 15.1995C7.01461 15.0472 6.92806 14.8405 6.92806 14.625C6.92806 14.4095 7.01461 14.2028 7.16867 14.0505C7.32272 13.8981 7.53167 13.8125 7.74953 13.8125H12.6784V9.1C12.6784 8.88451 12.7649 8.67785 12.919 8.52548C13.073 8.3731 13.282 8.2875 13.4998 8.2875C13.7177 8.2875 13.9266 8.3731 14.0807 8.52548C14.2348 8.67785 14.3213 8.88451 14.3213 9.1Z" fill="#F2A102"/>
</svg>
